<svg width="176" height="176" viewBox="0 0 176 176" fill="none" xmlns="http://www.w3.org/2000/svg">
<path d="M88 0C136.601 0 176 39.3989 176 88C176 136.601 136.601 176 88 176C39.3989 176 0 136.601 0 88C0 39.3989 39.3989 0 88 0ZM88.001 18.2832C88.001 18.2832 83.8106 34 83.8105 53.3877C83.8105 71.4447 85.4391 86.3167 87.5322 88.2734C88.863 91.4622 102.526 101.214 120.022 111.315C139.18 122.376 156.87 127.604 156.87 127.604C156.87 127.604 143.499 114.897 124.341 103.836C108.161 94.4947 93.8793 87.8412 89.1113 87.2422C90.8858 83.16 92.1914 69.5495 92.1914 53.3877C92.1913 34 88.001 18.2832 88.001 18.2832Z" fill="#4F6A35"/>
</svg>
