<svg width="24" height="24" viewBox="0 0 24 24" fill="none" xmlns="http://www.w3.org/2000/svg">
<path d="M21.3349 2.45909C21.7319 2.8471 22.0049 3.3451 22.1149 3.8891C22.2434 4.42775 22.205 4.99275 22.0049 5.5091L16.8549 20.3691C16.7193 20.79 16.4823 21.1712 16.1649 21.4791C16.0385 21.6152 15.8938 21.733 15.7349 21.8291C15.345 22.0904 14.8976 22.2535 14.431 22.3045C13.9644 22.3554 13.4924 22.2928 13.0553 22.1219C12.6181 21.9509 12.2288 21.6768 11.9205 21.3228C11.6123 20.9689 11.3942 20.5456 11.2849 20.0891L10.3349 14.2791C10.2579 14.0875 10.1421 13.9139 9.99492 13.7691C9.83984 13.6082 9.6475 13.488 9.43492 13.4191L4.00492 12.4891C3.38955 12.3353 2.84156 11.9841 2.44492 11.4891C2.06499 11.0084 1.84473 10.4211 1.81492 9.8091C1.79002 9.19955 1.95799 8.59767 2.29492 8.0891C2.63762 7.57647 3.12996 7.1819 3.70492 6.9591L18.2949 1.79909C18.8118 1.61631 19.3694 1.58167 19.9049 1.69909C20.4441 1.8115 20.9401 2.07511 21.3349 2.45909Z" fill="#4F6A35"/>
</svg>
