<svg width="24" height="24" viewBox="0 0 24 24" fill="none" xmlns="http://www.w3.org/2000/svg">
<path d="M21.8578 20.4378L16.6278 15.2178C17.9271 13.5592 18.5444 11.4673 18.3537 9.3691C18.163 7.27086 17.1787 5.32452 15.6016 3.92742C14.0246 2.53031 11.9738 1.78779 9.86784 1.85143C7.76191 1.91508 5.75968 2.78009 4.26989 4.26989C2.78009 5.75968 1.91508 7.76191 1.85143 9.86784C1.78779 11.9738 2.53031 14.0246 3.92742 15.6016C5.32452 17.1787 7.27086 18.163 9.3691 18.3537C11.4673 18.5444 13.5592 17.9271 15.2178 16.6278L20.4378 21.8578C20.5307 21.9515 20.6413 22.0259 20.7632 22.0767C20.8851 22.1274 21.0158 22.1536 21.1478 22.1536C21.2798 22.1536 21.4105 22.1274 21.5324 22.0767C21.6542 22.0259 21.7648 21.9515 21.8578 21.8578C21.9515 21.7648 22.0259 21.6542 22.0767 21.5324C22.1274 21.4105 22.1536 21.2798 22.1536 21.1478C22.1536 21.0158 22.1274 20.8851 22.0767 20.7632C22.0259 20.6413 21.9515 20.5307 21.8578 20.4378ZM14.1378 11.1478H11.1378V14.1478C11.1378 14.413 11.0324 14.6674 10.8449 14.8549C10.6574 15.0424 10.403 15.1478 10.1378 15.1478C9.87256 15.1478 9.61821 15.0424 9.43067 14.8549C9.24314 14.6674 9.13778 14.413 9.13778 14.1478V11.1478H6.13778C5.87256 11.1478 5.61821 11.0424 5.43067 10.8549C5.24314 10.6674 5.13778 10.413 5.13778 10.1478C5.13778 9.88256 5.24314 9.62821 5.43067 9.44067C5.61821 9.25314 5.87256 9.14778 6.13778 9.14778H9.13778V6.14778C9.13778 5.88256 9.24314 5.62821 9.43067 5.44067C9.61821 5.25314 9.87256 5.14778 10.1378 5.14778C10.403 5.14778 10.6574 5.25314 10.8449 5.44067C11.0324 5.62821 11.1378 5.88256 11.1378 6.14778V9.14778H14.1378C14.403 9.14778 14.6574 9.25314 14.8449 9.44067C15.0324 9.62821 15.1378 9.88256 15.1378 10.1478C15.1378 10.413 15.0324 10.6674 14.8449 10.8549C14.6574 11.0424 14.403 11.1478 14.1378 11.1478Z" fill="#4F6A35"/>
</svg>
