<svg width="20" height="20" viewBox="0 0 20 20" fill="none" xmlns="http://www.w3.org/2000/svg">
<path d="M10.948 5.30889L5.42001 10.8359C4.93095 11.3251 4.65625 11.9885 4.65634 12.6802C4.65644 13.372 4.93131 14.0353 5.42051 14.5244C5.9097 15.0135 6.57313 15.2881 7.26486 15.2881C7.95659 15.288 8.61995 15.0131 9.10901 14.5239L15.091 8.54189C15.5161 8.11907 15.8535 7.6164 16.0837 7.06277C16.3139 6.50914 16.4324 5.91547 16.4324 5.31589C16.4324 4.71631 16.3139 4.12265 16.0837 3.56902C15.8535 3.01539 15.5161 2.51271 15.091 2.08989C14.2306 1.25575 13.0759 0.794706 11.8776 0.806876C10.6794 0.819046 9.53426 1.30345 8.69101 2.15489L2.65701 8.07289C1.47616 9.30322 0.824601 10.9474 0.842142 12.6526C0.859683 14.3579 1.54492 15.9883 2.75083 17.1941C3.95674 18.3998 5.58724 19.0849 7.29247 19.1023C8.9977 19.1196 10.6418 18.4679 11.872 17.2869L19.249 9.97489" stroke="#B5A49A" stroke-width="1.5" stroke-linecap="round" stroke-linejoin="round"/>
</svg>
