<svg width="176" height="176" viewBox="0 0 176 176" fill="none" xmlns="http://www.w3.org/2000/svg">
<path d="M88 0C136.601 0 176 39.3989 176 88C176 136.601 136.601 176 88 176C39.3989 176 0 136.601 0 88C0 39.3989 39.3989 0 88 0ZM153.721 54.0947C153.609 54.0974 116.736 55.0108 93.9785 78.3154C84.954 87.5569 77.9039 97.3727 73.3115 106.477C70.3856 101.917 66.6233 97.2339 62.1562 92.7666C46.8283 77.4386 22.309 77.079 22.0947 77.0762C22.0976 77.2904 22.4572 101.81 37.7852 117.138C48.421 127.773 60.2707 134.412 68.7988 135.282C69.4097 136.538 70.2025 137.657 71.1846 138.616C81.3885 148.577 108.136 137.735 130.927 114.396C153.638 91.1394 153.72 54.3555 153.721 54.0947Z" fill="#4F6A35"/>
</svg>
