<svg width="24" height="24" viewBox="0 0 24 24" fill="none" xmlns="http://www.w3.org/2000/svg">
<rect x="0.5" y="0.5" width="23" height="23" rx="1.5" fill="#F8F8F8" fill-opacity="0.6"/>
<rect x="0.5" y="0.5" width="23" height="23" rx="1.5" stroke="#4F6A35"/>
<mask id="path-2-inside-1_179_929" fill="white">
<path d="M12.8555 3.8457C12.8555 3.8457 12.8151 4.84173 12.3457 5.8623C12.0012 6.61141 11.6681 7.09014 11.5156 7.29199C14.2736 5.48813 17.0209 5.75996 18.9355 8.55762C16.8784 8.60432 15.2239 10.3897 15.2236 12.5859C15.2236 12.9563 15.2713 13.3156 15.3594 13.6562C14.7539 14.3119 14.3799 15.2159 14.3799 16.2129C14.38 18.216 15.8904 19.8398 17.7529 19.8398C18.9679 19.8398 20.0323 19.1487 20.626 18.1123C19.531 21.4974 16.5938 24.4182 11.4307 22.2588C6.76894 23.9921 4.81416 22.3008 3.99805 19.7588C4.21824 19.8089 4.44735 19.8379 4.68359 19.8379C6.31327 19.8379 7.63458 18.5755 7.63477 17.0176C7.63468 15.9902 7.05891 15.0928 6.2002 14.5996C7.06072 14.1068 7.63861 13.2104 7.63867 12.1816C7.63855 10.7104 6.46065 9.50297 4.95703 9.37305C6.31185 7.36297 8.52265 6.18937 11.4307 7.34766C11.433 7.3461 11.4352 7.34433 11.4375 7.34277L11.916 3.91113L12.8555 3.8457Z"/>
</mask>
<path d="M12.8555 3.8457C12.8555 3.8457 12.8151 4.84173 12.3457 5.8623C12.0012 6.61141 11.6681 7.09014 11.5156 7.29199C14.2736 5.48813 17.0209 5.75996 18.9355 8.55762C16.8784 8.60432 15.2239 10.3897 15.2236 12.5859C15.2236 12.9563 15.2713 13.3156 15.3594 13.6562C14.7539 14.3119 14.3799 15.2159 14.3799 16.2129C14.38 18.216 15.8904 19.8398 17.7529 19.8398C18.9679 19.8398 20.0323 19.1487 20.626 18.1123C19.531 21.4974 16.5938 24.4182 11.4307 22.2588C6.76894 23.9921 4.81416 22.3008 3.99805 19.7588C4.21824 19.8089 4.44735 19.8379 4.68359 19.8379C6.31327 19.8379 7.63458 18.5755 7.63477 17.0176C7.63468 15.9902 7.05891 15.0928 6.2002 14.5996C7.06072 14.1068 7.63861 13.2104 7.63867 12.1816C7.63855 10.7104 6.46065 9.50297 4.95703 9.37305C6.31185 7.36297 8.52265 6.18937 11.4307 7.34766C11.433 7.3461 11.4352 7.34433 11.4375 7.34277L11.916 3.91113L12.8555 3.8457Z" fill="#9A9F17"/>
<path d="M12.8555 3.8457L13.8546 3.88624L13.8999 2.77054L12.786 2.84812L12.8555 3.8457ZM12.3457 5.8623L13.2542 6.28016L13.2542 6.28013L12.3457 5.8623ZM11.5156 7.29199L10.7176 6.6893L12.063 8.12888L11.5156 7.29199ZM18.9355 8.55762L18.9582 9.55736L20.8029 9.51548L19.7608 7.99284L18.9355 8.55762ZM15.2236 12.5859L14.2236 12.5858V12.5859H15.2236ZM15.3594 13.6562L16.094 14.3347L16.4641 13.934L16.3275 13.4059L15.3594 13.6562ZM14.3799 16.2129L13.3799 16.2128V16.2129L14.3799 16.2129ZM17.7529 19.8398V20.8398H17.7529L17.7529 19.8398ZM20.626 18.1123L21.5774 18.4201L19.7583 17.6153L20.626 18.1123ZM11.4307 22.2588L11.8165 21.3362L11.4523 21.1839L11.0822 21.3215L11.4307 22.2588ZM3.99805 19.7588L4.22013 18.7838L2.50966 18.3942L3.04591 20.0645L3.99805 19.7588ZM4.68359 19.8379L4.68349 20.8379H4.68359V19.8379ZM7.63477 17.0176L8.63477 17.0177V17.0175L7.63477 17.0176ZM6.2002 14.5996L5.70323 13.7318L4.19021 14.5983L5.70213 15.4668L6.2002 14.5996ZM7.63867 12.1816L8.63867 12.1817V12.1816L7.63867 12.1816ZM4.95703 9.37305L4.1278 8.81414L3.17816 10.2231L4.87095 10.3693L4.95703 9.37305ZM11.4307 7.34766L11.0606 8.27667L11.5496 8.47143L11.9869 8.17865L11.4307 7.34766ZM11.4375 7.34277L11.9931 8.17425L12.366 7.92509L12.4279 7.48088L11.4375 7.34277ZM11.916 3.91113L11.8465 2.91355L11.0376 2.96989L10.9256 3.77303L11.916 3.91113ZM12.8555 3.8457C11.8563 3.80517 11.8563 3.80497 11.8563 3.80476C11.8563 3.8047 11.8563 3.8045 11.8563 3.80438C11.8563 3.80413 11.8563 3.80389 11.8564 3.80367C11.8564 3.80323 11.8564 3.80285 11.8564 3.80252C11.8564 3.80187 11.8565 3.80145 11.8565 3.80126C11.8565 3.80088 11.8565 3.8014 11.8564 3.8028C11.8562 3.80561 11.8559 3.81192 11.8552 3.8215C11.8539 3.84068 11.8514 3.87281 11.847 3.91607C11.8381 4.00287 11.8219 4.13281 11.7929 4.29164C11.7341 4.61352 11.6269 5.03192 11.4372 5.44447L12.3457 5.8623L13.2542 6.28013C13.5339 5.67211 13.6816 5.08221 13.7603 4.65094C13.8001 4.43319 13.8233 4.25034 13.8367 4.11849C13.8434 4.05243 13.8477 3.99877 13.8504 3.95949C13.8518 3.93984 13.8528 3.92375 13.8534 3.91147C13.8538 3.90533 13.854 3.90014 13.8542 3.89592C13.8543 3.89381 13.8544 3.89195 13.8545 3.89033C13.8545 3.88953 13.8545 3.88878 13.8546 3.8881C13.8546 3.88776 13.8546 3.88743 13.8546 3.88712C13.8546 3.88696 13.8546 3.88674 13.8546 3.88667C13.8546 3.88645 13.8546 3.88624 12.8555 3.8457ZM12.3457 5.8623L11.4372 5.44445C11.1273 6.11831 10.8338 6.53557 10.7176 6.6893L11.5156 7.29199L12.3136 7.89468C12.5024 7.6447 12.8751 7.10451 13.2542 6.28016L12.3457 5.8623ZM11.5156 7.29199L12.063 8.12888C13.3027 7.31806 14.4329 7.04292 15.3923 7.18799C16.3332 7.33028 17.2747 7.90148 18.1103 9.1224L18.9355 8.55762L19.7608 7.99284C18.6817 6.41609 17.2922 5.45255 15.6913 5.21048C14.1089 4.97119 12.4865 5.46206 10.9683 6.4551L11.5156 7.29199ZM18.9355 8.55762L18.9129 7.55787C16.2598 7.61811 14.224 9.90052 14.2236 12.5858L15.2236 12.5859L16.2236 12.5861C16.2239 10.879 17.4971 9.59053 18.9582 9.55736L18.9355 8.55762ZM15.2236 12.5859H14.2236C14.2236 13.0422 14.2824 13.4856 14.3912 13.9066L15.3594 13.6562L16.3275 13.4059C16.2602 13.1456 16.2236 12.8704 16.2236 12.5859H15.2236ZM15.3594 13.6562L14.6247 12.9778C13.8486 13.8182 13.38 14.9644 13.3799 16.2128L14.3799 16.2129L15.3799 16.2129C15.3799 15.4673 15.6592 14.8056 16.094 14.3347L15.3594 13.6562ZM14.3799 16.2129L13.3799 16.2129C13.38 18.6988 15.271 20.8398 17.7529 20.8398V19.8398V18.8398C16.5097 18.8398 15.3799 17.7333 15.3799 16.2129L14.3799 16.2129ZM17.7529 19.8398L17.7529 20.8398C19.3648 20.8398 20.7418 19.9219 21.4937 18.6094L20.626 18.1123L19.7583 17.6153C19.3228 18.3755 18.5709 18.8398 17.7529 18.8398L17.7529 19.8398ZM20.626 18.1123L19.6745 17.8045C19.1748 19.3494 18.287 20.6804 17.0505 21.4007C15.8578 22.0954 14.1706 22.3208 11.8165 21.3362L11.4307 22.2588L11.0448 23.1814C13.8539 24.3562 16.2168 24.2009 18.0572 23.1288C19.8539 22.0823 20.9822 20.2603 21.5774 18.4201L20.626 18.1123ZM11.4307 22.2588L11.0822 21.3215C8.86974 22.1441 7.51383 22.0712 6.67994 21.6989C5.8651 21.3351 5.31118 20.5775 4.95018 19.4531L3.99805 19.7588L3.04591 20.0645C3.50103 21.482 4.33255 22.8411 5.86456 23.5251C7.37752 24.2006 9.32985 24.1068 11.7792 23.1961L11.4307 22.2588ZM3.99805 19.7588L3.77597 20.7338C4.06156 20.7989 4.36531 20.8379 4.68349 20.8379L4.68359 19.8379L4.68369 18.8379C4.52939 18.8379 4.37491 18.819 4.22013 18.7838L3.99805 19.7588ZM4.68359 19.8379V20.8379C6.82233 20.8379 8.6345 19.1701 8.63477 17.0177L7.63477 17.0176L6.63477 17.0175C6.63465 17.9809 5.80422 18.8379 4.68359 18.8379V19.8379ZM7.63477 17.0176L8.63477 17.0175C8.63464 15.6013 7.83979 14.3881 6.69826 13.7325L6.2002 14.5996L5.70213 15.4668C6.27802 15.7975 6.63471 16.3791 6.63477 17.0177L7.63477 17.0176ZM6.2002 14.5996L6.69717 15.4674C7.83996 14.8129 8.63858 13.6009 8.63867 12.1817L7.63867 12.1816L6.63867 12.1816C6.63863 12.8198 6.28149 13.4007 5.70323 13.7318L6.2002 14.5996ZM7.63867 12.1816L8.63867 12.1816C8.6385 10.15 7.02137 8.54769 5.04312 8.37676L4.95703 9.37305L4.87095 10.3693C5.89992 10.4582 6.63859 11.2708 6.63867 12.1817L7.63867 12.1816ZM4.95703 9.37305L5.78626 9.93196C6.37637 9.05643 7.11362 8.42126 7.95705 8.11057C8.78422 7.80588 9.80782 7.77767 11.0606 8.27667L11.4307 7.34766L11.8007 6.41864C10.1455 5.75936 8.60969 5.7388 7.26575 6.23385C5.93807 6.72291 4.89251 7.67958 4.1278 8.81414L4.95703 9.37305ZM11.4307 7.34766L11.9869 8.17865C12 8.16992 12.0104 8.16249 12.0169 8.15782C12.0202 8.15544 12.0229 8.15346 12.0247 8.15218C12.0263 8.15101 12.0277 8.14996 12.0278 8.14992C12.0282 8.14959 12.0273 8.15025 12.0262 8.15106C12.025 8.15197 12.0228 8.15357 12.02 8.15559C12.0145 8.15953 12.0051 8.16622 11.9931 8.17425L11.4375 7.34277L10.8819 6.51129C10.8688 6.5201 10.8582 6.5276 10.8516 6.53236C10.8482 6.53478 10.8455 6.5368 10.8437 6.53812C10.842 6.53935 10.8405 6.54042 10.8404 6.54051C10.8399 6.54089 10.8408 6.54025 10.8418 6.53949C10.843 6.53863 10.8451 6.53706 10.8479 6.53509C10.8532 6.53123 10.8625 6.52462 10.8744 6.51666L11.4307 7.34766ZM11.4375 7.34277L12.4279 7.48088L12.9064 4.04924L11.916 3.91113L10.9256 3.77303L10.4471 7.20467L11.4375 7.34277ZM11.916 3.91113L11.9855 4.90872L12.9249 4.84329L12.8555 3.8457L12.786 2.84812L11.8465 2.91355L11.916 3.91113Z" fill="#4F6A35" mask="url(#path-2-inside-1_179_929)"/>
</svg>
