<svg width="24" height="24" viewBox="0 0 24 24" fill="none" xmlns="http://www.w3.org/2000/svg">
<g clip-path="url(#clip0_186_1398)">
<rect width="24" height="24" rx="2" fill="#F8F8F8" fill-opacity="0.6"/>
<path d="M22 14L23.5 16V23.5H15.5V19L22 14Z" fill="#6E6A69" stroke="#B5A49A" stroke-linejoin="round"/>
<path d="M10.5 16L15.5 19V23.5H6L6.5 17.5L10.5 16Z" fill="#6E6A69" stroke="#B5A49A" stroke-linejoin="round"/>
<path d="M0 17.2008L2.92996 14L6.08786 16.3767V17.2L5.68421 23.6008L1.68359 23.6016L0.183594 22.6016L0 17.2008Z" fill="#6E6A69" stroke="#B5A49A" stroke-linejoin="round"/>
<path d="M15.5011 19.0006L11.5 16.5L11 12.5L16 11.5L20.4998 15.0001L15.5011 19.0006Z" fill="#6E6A69" stroke="#B5A49A" stroke-linejoin="round"/>
<path d="M11 16L6.49968 17.0012L6.5 17L5 15L8.00056 12.4996L11.0001 12.5L11 16Z" fill="#6E6A69" stroke="#B5A49A" stroke-linejoin="round"/>
</g>
<rect x="0.5" y="0.5" width="23" height="23" rx="1.5" stroke="#4F6A35"/>
<defs>
<clipPath id="clip0_186_1398">
<rect width="24" height="24" rx="2" fill="white"/>
</clipPath>
</defs>
</svg>
